<svg xmlns="http://www.w3.org/2000/svg" xmlns:xlink="http://www.w3.org/1999/xlink" viewBox="0 0 488.38 640.7"><defs><style>.cls-1{fill:url(#radial-gradient);}.cls-2{fill:#006838;}</style><radialGradient id="radial-gradient" cx="244.19" cy="248.52" fx="83.34771183836475" fy="312.92907504688264" r="246.37" gradientUnits="userSpaceOnUse"><stop offset="0" stop-color="#009444"/><stop offset="0.32" stop-color="#009043"/><stop offset="0.6" stop-color="#008540"/><stop offset="0.87" stop-color="#00733b"/><stop offset="1" stop-color="#006838"/></radialGradient></defs><title>Asset 2</title><g id="Layer_2" data-name="Layer 2"><g id="Layer_1-2" data-name="Layer 1"><path class="cls-1" d="M244.19,301.78a53.41,53.41,0,1,1,53.41-53.41A53.41,53.41,0,0,1,244.19,301.78ZM137.28,29.61c-2.57-3.66-19.81,4-38.51,17.07S67,73.36,69.56,77s19.8-4,38.5-17.08S139.84,33.27,137.28,29.61ZM163.73,72c-7.27-10.39-27.29-8.93-44.7,3.26s-25.63,30.5-18.35,40.89,27.29,8.94,44.7-3.25S171,82.39,163.73,72ZM297.87,110.8c0-38.37-46.6-33.35-46.6-60.33,0-34.41,45.11-16.74,45.11-36.29C296.38,4.54,270.17.07,244.47,0h-.55C218.21.07,192,4.54,192,14.18c0,19.55,45.11,1.88,45.11,36.29,0,27-46.59,22-46.59,60.33,0,29.53,24.7,43.94,53.4,44.13h.55C273.17,154.74,297.87,140.33,297.87,110.8ZM3.1,282.45c-4.28,1.31-2.34,20.07,4.34,41.9S23,362.82,27.27,361.51s2.33-20.06-4.34-41.9S7.38,281.14,3.1,282.45Zm48.48-12.06c-12.13,3.71-16.93,23.19-10.72,43.52S62,347.71,74.09,344,91,320.8,84.81,300.48,63.72,266.68,51.58,270.39Zm78.36-115.58c-36.49-11.86-46.12,34-71.77,25.68-32.74-10.64-2-48.08-20.58-54.12-9.17-3-21.52,20.57-29.53,45h0l-.08.26-.09.26h0C0,196.35-3.84,222.66,5.33,225.64c18.6,6,15.73-42.33,48.46-31.69,25.66,8.33,6.48,51.1,43,63,28.08,9.12,49.42-9.91,58.47-37.15h0a2.58,2.58,0,0,0,.08-.26c0-.09.07-.18.09-.26h0C164.1,191.88,158,163.94,129.94,154.81ZM202.1,488.2c-.08,4.47,18.36,8.42,41.19,8.82s41.39-2.91,41.47-7.38-18.36-8.42-41.19-8.82S202.18,483.72,202.1,488.2Zm3.51-49.84c-.22,12.68,16.83,23.27,38.08,23.64s38.66-9.61,38.88-22.3-16.83-23.27-38.08-23.64S205.83,425.67,205.61,438.36ZM119.9,328.12c-22.55,31,18.1,54.37,2.24,76.19-20.23,27.85-46.33-13-57.83,2.85C58.65,415,77.23,434,98,449.14h0l.22.16.23.16h0c20.83,15,44.66,26.84,50.33,19,11.49-15.81-35.39-28-15.16-55.88,15.85-21.82,50.6,9.63,73.15-21.41,17.36-23.89,5.85-50.07-17.26-67.09h0l-.23-.15-.22-.17h0C165.72,307.09,137.26,304.23,119.9,328.12Zm339.37,34.39c4.23,1.46,13.69-14.86,21.12-36.45s10-40.26,5.8-41.72-13.69,14.87-21.12,36.45S455,361.05,459.27,362.51ZM413,343.77c12,4.13,27.33-8.81,34.25-28.91S450,275.12,438,271s-27.34,8.82-34.26,28.91S401,339.64,413,343.77ZM281.63,391.22c22.55,31,57.3-.41,73.16,21.41,20.23,27.85-26.66,40.07-15.16,55.88,5.66,7.8,29.5-4,50.33-19h0l.22-.16.22-.16h0c20.76-15.15,39.34-34.18,33.67-42-11.49-15.82-37.6,25-57.83-2.85-15.86-21.82,24.79-45.15,2.24-76.19-17.36-23.89-45.81-21-69.14-4.31h0l-.23.17-.22.15h0C275.78,341.15,264.27,367.33,281.63,391.22ZM419.21,79.09c2.69-3.57-9.91-17.61-28.14-31.35s-35.19-22-37.89-18.4,9.91,17.6,28.14,31.34S416.52,82.66,419.21,79.09Zm-32.14,38.26c7.64-10.14.07-28.72-16.91-41.51s-36.92-15-44.56-4.82-.06,28.72,16.91,41.51S379.44,127.48,387.07,117.35Zm4.55,139.56c36.49-11.86,17.32-54.63,43-63,32.73-10.64,29.86,37.73,48.46,31.69,9.17-3,5.32-29.29-2.56-53.76h0a2,2,0,0,1-.08-.26l-.09-.26h0c-8-24.42-20.35-48-29.52-45-18.6,6,12.15,43.48-20.58,54.12-25.66,8.33-35.28-37.54-71.78-25.68-28.08,9.13-34.16,37.07-25.46,64.42h0l.09.26.08.26h0C342.19,247,363.53,266,391.62,256.91Z"/><path class="cls-2" d="M49.44,640.7A35.38,35.38,0,0,1,22.59,629a37.94,37.94,0,0,1-7.46-12.64,47.95,47.95,0,0,1,0-31.09,38,38,0,0,1,7.46-12.64,34.47,34.47,0,0,1,11.7-8.47,36.62,36.62,0,0,1,15.15-3.06q9.89,0,16.09,3.53A36.68,36.68,0,0,1,76.29,574l-5.66,5a24.3,24.3,0,0,0-9.26-8.08,26.66,26.66,0,0,0-11.46-2.44A27.56,27.56,0,0,0,38,571a26.54,26.54,0,0,0-9,6.83,30.1,30.1,0,0,0-5.65,10.28,42.48,42.48,0,0,0,0,25.51A31,31,0,0,0,29,623.9a26,26,0,0,0,9,6.91,27.55,27.55,0,0,0,11.93,2.51,25.85,25.85,0,0,0,11.46-2.51,25,25,0,0,0,9.26-8.16l5.66,5a35.7,35.7,0,0,1-10.76,9.5Q59.32,640.71,49.44,640.7Z"/><path class="cls-2" d="M125.27,640.7a35.16,35.16,0,0,1-15.07-3.14A33.86,33.86,0,0,1,98.73,629a39.33,39.33,0,0,1-7.3-12.64,47.95,47.95,0,0,1,0-31.09,39.43,39.43,0,0,1,7.3-12.64,33,33,0,0,1,11.47-8.47,36,36,0,0,1,15.07-3.06,36.5,36.5,0,0,1,15.23,3.06A33.07,33.07,0,0,1,152,572.64a39.43,39.43,0,0,1,7.3,12.64,47.95,47.95,0,0,1,0,31.09A39.33,39.33,0,0,1,152,629a33.92,33.92,0,0,1-11.46,8.55A35.6,35.6,0,0,1,125.27,640.7Zm0-7.38a25.1,25.1,0,0,0,20.64-9.89,32.24,32.24,0,0,0,5.34-10.36,42.05,42.05,0,0,0,0-24.41,31.14,31.14,0,0,0-5.34-10.36,26.22,26.22,0,0,0-8.71-7.15,25.67,25.67,0,0,0-11.93-2.67,25.36,25.36,0,0,0-11.78,2.67,26.22,26.22,0,0,0-8.71,7.15,31.14,31.14,0,0,0-5.34,10.36,42.28,42.28,0,0,0,0,24.41,32.24,32.24,0,0,0,5.34,10.36,25.86,25.86,0,0,0,8.71,7.23A25.35,25.35,0,0,0,125.27,633.32Z"/><path class="cls-2" d="M181.63,638.82V563h8.16v13A43.63,43.63,0,0,1,201,565.5a26,26,0,0,1,14.36-4.08v9a7.18,7.18,0,0,0-2-.32H211.3a18.44,18.44,0,0,0-6.12,1.18,32.27,32.27,0,0,0-6.28,3.06,31.75,31.75,0,0,0-5.42,4.32,19.29,19.29,0,0,0-3.69,4.95v55.26Z"/><path class="cls-2" d="M263.74,640.7a39.62,39.62,0,0,1-15.31-2.9,34.43,34.43,0,0,1-12-8.24,38.56,38.56,0,0,1-7.85-12.64,44.32,44.32,0,0,1-2.82-16.09,43.62,43.62,0,0,1,2.74-15.47,38.71,38.71,0,0,1,7.62-12.64,36.35,36.35,0,0,1,11.61-8.48,34.25,34.25,0,0,1,14.61-3.13,34.89,34.89,0,0,1,15.3,3.21A33,33,0,0,1,288.86,573a38.31,38.31,0,0,1,6.91,12.79,50.13,50.13,0,0,1,2.35,15.47v2.19H234.69a37.16,37.16,0,0,0,2.44,11.62,29.86,29.86,0,0,0,6,9.66,27.54,27.54,0,0,0,9.19,6.51,29.6,29.6,0,0,0,12.09,2.36A34.73,34.73,0,0,0,278,631a32.55,32.55,0,0,0,11.22-7.85l4.24,5.34a38.73,38.73,0,0,1-13,9.1A41.87,41.87,0,0,1,263.74,640.7Zm26.06-43.64a32.32,32.32,0,0,0-1.65-10,28.61,28.61,0,0,0-5.1-9.34,26.7,26.7,0,0,0-8.64-6.91,26.37,26.37,0,0,0-12.24-2.67,24.76,24.76,0,0,0-11.78,2.67,27.86,27.86,0,0,0-8.47,6.83,29.69,29.69,0,0,0-5.26,9.34,33.81,33.81,0,0,0-2,10Z"/><path class="cls-2" d="M350.4,640.7A35.38,35.38,0,0,1,323.55,629a37.75,37.75,0,0,1-7.45-12.64,47.95,47.95,0,0,1,0-31.09,37.85,37.85,0,0,1,7.45-12.64,34.57,34.57,0,0,1,11.7-8.47,36.62,36.62,0,0,1,15.15-3.06q9.89,0,16.09,3.53A36.56,36.56,0,0,1,377.25,574l-5.65,5a24.33,24.33,0,0,0-9.27-8.08,26.63,26.63,0,0,0-11.46-2.44A27.62,27.62,0,0,0,338.94,571a26.54,26.54,0,0,0-9,6.83,30.1,30.1,0,0,0-5.65,10.28,42.48,42.48,0,0,0,0,25.51,31,31,0,0,0,5.65,10.28,26,26,0,0,0,9,6.91,27.62,27.62,0,0,0,11.93,2.51,25.82,25.82,0,0,0,11.46-2.51,25,25,0,0,0,9.27-8.16l5.65,5a35.58,35.58,0,0,1-10.76,9.5Q360.3,640.71,350.4,640.7Z"/><path class="cls-2" d="M418.07,640.7q-7.54,0-11.23-4.31t-3.69-12.17v-54H390.59V563h12.56V542.27h8.32V563h15.39v7.22H411.47V623a13.45,13.45,0,0,0,1.89,7.46c1.25,1.94,3.24,2.9,6,2.9a11.74,11.74,0,0,0,8.48-3.61l3.14,6.28a16.07,16.07,0,0,1-5.18,3.46A20.16,20.16,0,0,1,418.07,640.7Z"/><path class="cls-2" d="M454,638.82V534.1h8.16V638.82Z"/></g></g></svg>